<svg width="32" height="32" viewBox="0 0 32 32" fill="none" xmlns="http://www.w3.org/2000/svg">
<rect width="32" height="32" rx="7" fill="black"/>
<path d="M5.45514 13.891C5.45514 11.2109 7.62779 9.03824 10.3079 9.03824C12.988 9.03824 15.1606 11.2109 15.1606 13.891V18.143C15.1606 20.8231 12.988 22.9957 10.3079 22.9957C7.62779 22.9957 5.45514 20.8231 5.45514 18.143V13.891Z" fill="white"/>
<path d="M6.8164 19.5085C6.8164 17.5802 8.3796 16.017 10.3079 16.017C12.2362 16.017 13.7994 17.5802 13.7994 19.5085C13.7994 21.4368 12.2362 23 10.3079 23C8.3796 23 6.8164 21.4368 6.8164 19.5085Z" fill="black"/>
<path d="M16.8394 13.8527C16.8394 11.1726 19.012 9 21.6921 9C24.3722 9 26.5448 11.1726 26.5448 13.8527V18.1048C26.5448 20.7848 24.3722 22.9575 21.6921 22.9575C19.012 22.9575 16.8394 20.7849 16.8394 18.1048V13.8527Z" fill="white"/>
<path d="M18.2006 19.4703C18.2006 17.542 19.7638 15.9788 21.6921 15.9788C23.6204 15.9788 25.1836 17.542 25.1836 19.4703C25.1836 21.3986 23.6204 22.9618 21.6921 22.9618C19.7638 22.9618 18.2006 21.3986 18.2006 19.4703Z" fill="black"/>
</svg>
